#N canvas 0 0 2560 1464 12;
#X obj 129 642 -~;
#X floatatom 148 415 6 0 0 0 - - - 0;
#X obj 147 484 mtof;
#X msg 231 491 1;
#X obj 147 518 phasor~;
#X obj 231 559 dbtorms~;
#X obj 129 676 hip~ 3;
#X obj 218 801 dac~;
#X obj 213 736 *~;
#X msg 118 369 74;
#X msg 155 370 73;
#X msg 88 368 62, f 2;
#X msg 207 373 69;
#X msg 249 374 66;
#X msg 295 371 68;
#X msg 333 375 64;
#X msg 388 377 73;
#X msg 425 378 71;
#X msg 468 376 69;
#X msg 513 378 68;
#X obj 79 323 bng 19 250 50 0 empty empty empty 0 -10 0 12 #fcfcfc #000000 #000000;
#X obj 151 139 f;
#X obj 225 138 + 1;
#X floatatom 150 193 5 0 0 0 - - - 0;
#X obj 154 33 tgl 19 0 empty empty empty 0 -10 0 12 #fcfcfc #000000 #000000 0 1;
#X obj 120 324 bng 19 250 50 0 empty empty empty 0 -10 0 12 #fcfcfc #000000 #000000;
#X obj 163 323 bng 19 250 50 0 empty empty empty 0 -10 0 12 #fcfcfc #000000 #000000;
#X obj 210 323 bng 19 250 50 0 empty empty empty 0 -10 0 12 #fcfcfc #000000 #000000;
#X obj 253 321 bng 19 250 50 0 empty empty empty 0 -10 0 12 #fcfcfc #000000 #000000;
#X obj 300 321 bng 19 250 50 0 empty empty empty 0 -10 0 12 #fcfcfc #000000 #000000;
#X obj 343 320 bng 19 250 50 0 empty empty empty 0 -10 0 12 #fcfcfc #000000 #000000;
#X obj 428 326 bng 19 250 50 0 empty empty empty 0 -10 0 12 #fcfcfc #000000 #000000;
#X floatatom 15 233 5 0 0 0 - - - 0;
#X obj 389 321 bng 19 250 50 0 empty empty empty 0 -10 0 12 #fcfcfc #000000 #000000;
#X obj 523 325 bng 19 250 50 0 empty empty empty 0 -10 0 12 #fcfcfc #000000 #000000;
#X obj 473 327 bng 19 250 50 0 empty empty empty 0 -10 0 12 #fcfcfc #000000 #000000;
#X obj 42 604 *~ 3;
#X obj 147 572 *~ 2;
#X obj 65 202 % 32;
#X obj 468 654 -~;
#X floatatom 487 427 6 0 0 0 - - - 0;
#X obj 486 496 mtof;
#X msg 559 475 1;
#X obj 486 530 phasor~;
#X obj 570 571 dbtorms~;
#X obj 468 688 hip~ 3;
#X obj 557 813 dac~;
#X obj 552 748 *~;
#X obj 377 576 clip~ 0 0.667;
#X obj 381 616 *~ 3;
#X obj 486 584 *~ 2;
#X obj 549 783 *~ 1;
#X obj 633 723 delwrite~ s 500;
#X obj 572 535 adsr 100 50 1000 0 2000;
#X obj 152 93 metro 300;
#X obj 789 774 *~ 0.5;
#X obj 233 523 adsr 100 50 8000 0 1000;
#X obj 38 564 clip~ 0 0.685;
#X obj 210 771 *~ 0.6;
#X obj 1228 238 bng 19 250 50 0 empty empty empty 0 -10 0 12 #fcfcfc #000000 #000000;
#X obj 1302 237 bng 19 250 50 0 empty empty empty 0 -10 0 12 #fcfcfc #000000 #000000;
#X obj 1365 238 bng 19 250 50 0 empty empty empty 0 -10 0 12 #fcfcfc #000000 #000000;
#X obj 1433 240 bng 19 250 50 0 empty empty empty 0 -10 0 12 #fcfcfc #000000 #000000;
#X obj 1489 244 bng 19 250 50 0 empty empty empty 0 -10 0 12 #fcfcfc #000000 #000000;
#X obj 921 123 % 32;
#X obj 70 251 select 0 1 2 3 4 5 6 7 8 9 10 11 12 13 14 15 16 17 18 19 20 21 22 23 24 25 26 27 28 29 30 31, f 92;
#X obj 994 148 select 0 1 2 3 4 5 6 7 8 9 10 11 12 13 14 15 16 17 18 19 20 21 22 23 24 25 26 27 28 29 30 31, f 92;
#X floatatom 900 151 5 0 0 0 - - - 0;
#X obj 1189 336 mtof;
#X obj 1208 595 dac~;
#X obj 1267 363 vline~;
#X obj 1188 355 osc~;
#X obj 1158 337 bng 19 250 50 0 empty empty empty 0 -10 0 12 #fcfcfc #000000 #000000;
#X obj 1187 384 *~ 0.6;
#X obj 1273 481 *~;
#X floatatom 1224 346 5 0 0 0 - - - 0;
#X obj 1186 429 lop~ 100;
#X obj 1219 562 clip~ -0.8 -0.1;
#X obj 1565 318 mtof;
#X obj 1590 577 dac~;
#X obj 1643 345 vline~;
#X obj 1564 337 osc~;
#X obj 1534 319 bng 19 250 50 0 empty empty empty 0 -10 0 12 #fcfcfc #000000 #000000;
#X obj 1563 366 *~ 0.6;
#X obj 1649 463 *~;
#X floatatom 1600 328 5 0 0 0 - - - 0;
#X obj 1562 411 lop~ 100;
#X obj 1595 544 clip~ -0.8 -0.1;
#X obj 1229 523 *~ 3;
#X obj 1605 505 *~ 3;
#X obj 1934 305 mtof;
#X obj 1959 564 dac~;
#X obj 2012 332 vline~;
#X obj 1933 324 osc~;
#X obj 1903 306 bng 19 250 50 0 empty empty empty 0 -10 0 12 #fcfcfc #000000 #000000;
#X obj 1932 353 *~ 0.6;
#X obj 2018 450 *~;
#X floatatom 1969 315 5 0 0 0 - - - 0;
#X obj 1931 398 lop~ 100;
#X obj 1964 531 clip~ -0.8 -0.1;
#X obj 1974 492 *~ 3;
#X obj 810 328 mtof;
#X obj 835 587 dac~;
#X obj 888 355 vline~;
#X obj 809 347 osc~;
#X obj 779 329 bng 19 250 50 0 empty empty empty 0 -10 0 12 #fcfcfc #000000 #000000;
#X obj 808 376 *~ 0.6;
#X obj 894 473 *~;
#X floatatom 845 338 5 0 0 0 - - - 0;
#X obj 972 488 delwrite~ a 500;
#X obj 807 421 lop~ 100;
#X obj 840 554 clip~ -0.8 -0.1;
#X obj 850 515 *~ 3;
#X obj 1351 496 delwrite~ b 500;
#X obj 1727 478 delwrite~ c 500;
#X obj 2096 465 delwrite~ d 500;
#X msg 810 308 66;
#X msg 1565 298 64;
#X msg 1189 316 69;
#X msg 1934 285 68;
#X obj 659 770 delread~ s 201;
#X obj 2122 512 delread~ d 180;
#X obj 1110 522 *~ 0.9;
#X msg 896 323 0 \, 1 100 \, 0 200 100, f 24;
#X obj 998 535 delread~ a 103;
#X obj 1883 529 *~ 0.9;
#X obj 1508 546 *~ 0.9;
#X obj 1377 543 delread~ b 170;
#X msg 2020 300 0 \, 1 100 \, 0 200 200, f 24;
#X obj 1753 525 delread~ c 103;
#X obj 2252 516 *~ 0.9;
#X msg 1275 331 0 \, 1 150 \, 0 200 150, f 24;
#X msg 1654 314 0 \, 1 100 \, 0 200 100, f 24;
#X msg 85 109 0;
#X obj 1126 1884 osc~, f 5;
#X obj 757 147 f;
#X obj 831 146 + 1;
#X floatatom 756 201 5 0 0 0 - - - 0;
#X obj 760 41 tgl 19 0 empty empty empty 0 -10 0 12 #fcfcfc #000000 #000000 0 1;
#X obj 758 101 metro 300;
#X msg 691 117 0;
#X connect 0 0 6 0;
#X connect 1 0 3 0;
#X connect 1 0 2 0;
#X connect 2 0 4 0;
#X connect 3 0 56 0;
#X connect 4 0 37 0;
#X connect 4 0 57 0;
#X connect 5 0 8 1;
#X connect 6 0 8 0;
#X connect 8 0 58 0;
#X connect 9 0 1 0;
#X connect 10 0 1 0;
#X connect 11 0 1 0;
#X connect 12 0 40 0;
#X connect 13 0 1 0;
#X connect 14 0 40 0;
#X connect 15 0 40 0;
#X connect 16 0 1 0;
#X connect 17 0 1 0;
#X connect 18 0 1 0;
#X connect 19 0 1 0;
#X connect 20 0 11 0;
#X connect 21 0 22 0;
#X connect 21 0 23 0;
#X connect 21 0 38 0;
#X connect 22 0 21 1;
#X connect 24 0 54 0;
#X connect 24 0 133 0;
#X connect 24 0 138 0;
#X connect 25 0 9 0;
#X connect 26 0 10 0;
#X connect 27 0 12 0;
#X connect 28 0 13 0;
#X connect 29 0 14 0;
#X connect 30 0 15 0;
#X connect 31 0 17 0;
#X connect 33 0 16 0;
#X connect 34 0 19 0;
#X connect 35 0 18 0;
#X connect 36 0 0 0;
#X connect 37 0 0 1;
#X connect 38 0 32 0;
#X connect 38 0 65 0;
#X connect 39 0 45 0;
#X connect 40 0 42 0;
#X connect 40 0 41 0;
#X connect 41 0 43 0;
#X connect 42 0 53 0;
#X connect 43 0 50 0;
#X connect 43 0 48 0;
#X connect 44 0 47 1;
#X connect 45 0 47 0;
#X connect 47 0 51 0;
#X connect 48 0 49 0;
#X connect 49 0 39 0;
#X connect 50 0 39 1;
#X connect 51 0 46 0;
#X connect 51 0 46 1;
#X connect 51 0 52 0;
#X connect 53 0 44 0;
#X connect 54 0 21 0;
#X connect 55 0 52 0;
#X connect 56 0 5 0;
#X connect 57 0 36 0;
#X connect 58 0 7 0;
#X connect 58 0 7 1;
#X connect 59 0 105 0;
#X connect 59 0 123 0;
#X connect 60 0 72 0;
#X connect 60 0 131 0;
#X connect 61 0 82 0;
#X connect 61 0 132 0;
#X connect 62 0 72 0;
#X connect 62 0 131 0;
#X connect 63 0 94 0;
#X connect 63 0 128 0;
#X connect 64 0 67 0;
#X connect 64 0 66 0;
#X connect 65 0 20 0;
#X connect 65 3 20 0;
#X connect 65 4 25 0;
#X connect 65 6 26 0;
#X connect 65 8 27 0;
#X connect 65 9 27 0;
#X connect 65 10 27 0;
#X connect 65 11 28 0;
#X connect 65 12 25 0;
#X connect 65 14 26 0;
#X connect 65 16 29 0;
#X connect 65 17 29 0;
#X connect 65 18 29 0;
#X connect 65 19 30 0;
#X connect 65 20 33 0;
#X connect 65 22 31 0;
#X connect 65 24 30 0;
#X connect 65 25 30 0;
#X connect 65 26 30 0;
#X connect 65 27 30 0;
#X connect 65 28 35 0;
#X connect 65 30 34 0;
#X connect 66 0 59 0;
#X connect 66 4 59 0;
#X connect 66 6 60 0;
#X connect 66 8 61 0;
#X connect 66 12 61 0;
#X connect 66 13 62 0;
#X connect 66 16 63 0;
#X connect 68 0 71 0;
#X connect 68 0 75 0;
#X connect 70 0 74 1;
#X connect 71 0 73 0;
#X connect 72 0 118 0;
#X connect 73 0 76 0;
#X connect 74 0 88 0;
#X connect 76 0 74 0;
#X connect 77 0 69 0;
#X connect 77 0 69 1;
#X connect 78 0 81 0;
#X connect 78 0 85 0;
#X connect 80 0 84 1;
#X connect 81 0 83 0;
#X connect 82 0 117 0;
#X connect 83 0 86 0;
#X connect 84 0 89 0;
#X connect 86 0 84 0;
#X connect 87 0 79 0;
#X connect 87 0 79 1;
#X connect 88 0 77 0;
#X connect 88 0 113 0;
#X connect 89 0 87 0;
#X connect 89 0 114 0;
#X connect 90 0 93 0;
#X connect 90 0 97 0;
#X connect 92 0 96 1;
#X connect 93 0 95 0;
#X connect 94 0 119 0;
#X connect 95 0 98 0;
#X connect 96 0 100 0;
#X connect 98 0 96 0;
#X connect 99 0 91 0;
#X connect 99 0 91 1;
#X connect 100 0 99 0;
#X connect 100 0 115 0;
#X connect 101 0 104 0;
#X connect 101 0 108 0;
#X connect 103 0 107 1;
#X connect 104 0 106 0;
#X connect 105 0 116 0;
#X connect 106 0 110 0;
#X connect 107 0 112 0;
#X connect 110 0 107 0;
#X connect 111 0 102 0;
#X connect 111 0 102 1;
#X connect 112 0 111 0;
#X connect 112 0 109 0;
#X connect 116 0 101 0;
#X connect 117 0 78 0;
#X connect 118 0 68 0;
#X connect 119 0 90 0;
#X connect 120 0 46 0;
#X connect 120 0 46 1;
#X connect 120 0 55 0;
#X connect 121 0 99 0;
#X connect 121 0 130 0;
#X connect 122 0 109 0;
#X connect 123 0 103 0;
#X connect 124 0 111 0;
#X connect 124 0 122 0;
#X connect 125 0 114 0;
#X connect 126 0 113 0;
#X connect 127 0 77 0;
#X connect 127 0 126 0;
#X connect 128 0 92 0;
#X connect 129 0 87 0;
#X connect 129 0 125 0;
#X connect 130 0 115 0;
#X connect 131 0 70 0;
#X connect 132 0 80 0;
#X connect 133 0 21 0;
#X connect 135 0 136 0;
#X connect 135 0 137 0;
#X connect 135 0 64 0;
#X connect 136 0 135 1;
#X connect 138 0 139 0;
#X connect 138 0 140 0;
#X connect 139 0 135 0;
#X connect 140 0 135 0;
